<svg version="1.1" id="Layer_1" xmlns="http://www.w3.org/2000/svg" xmlns:xlink="http://www.w3.org/1999/xlink" x="0px" y="0px"
	 width="100%" viewBox="0 0 80 80" enable-background="new 0 0 80 80" xml:space="preserve">
<path fill="#2764EB" opacity="1.000000" stroke="none" 
	d="
M45.000000,81.000000 
	C30.000000,81.000000 15.500000,81.000000 1.000000,81.000000 
	C1.000000,54.333332 1.000000,27.666666 1.000000,1.000000 
	C27.666666,1.000000 54.333332,1.000000 81.000000,1.000000 
	C81.000000,27.666666 81.000000,54.333332 81.000000,81.000000 
	C69.166664,81.000000 57.333332,81.000000 45.000000,81.000000 
M16.999706,59.171860 
	C17.844881,61.081219 18.690058,62.990582 19.535233,64.899940 
	C20.456354,63.063076 22.053169,61.268665 22.171741,59.381382 
	C22.525637,53.748501 22.559027,48.063725 22.222601,42.428776 
	C21.927277,37.482277 23.941099,36.046925 28.647804,36.214039 
	C36.953625,36.508938 45.282795,36.474514 53.591587,36.224983 
	C58.037037,36.091480 60.002472,37.454700 59.773090,42.170395 
	C59.474453,48.309753 59.553921,54.481468 59.820328,60.624096 
	C59.883484,62.080368 61.338593,63.476280 62.153416,64.899956 
	C63.101418,63.444454 64.833595,62.008545 64.870522,60.530285 
	C65.115494,50.723190 64.952736,40.906712 65.020164,31.093958 
	C65.045120,27.462378 63.452850,25.336929 60.081764,23.923361 
	C41.940311,16.316282 41.962334,16.263227 23.588182,23.272255 
	C23.277967,23.390591 22.993740,23.591244 22.676657,23.675236 
	C18.492716,24.783522 16.886858,27.535980 16.956455,31.794037 
	C17.100500,40.606949 16.999710,49.423862 16.999706,59.171860 
M46.435890,40.905727 
	C39.844505,40.905727 33.253120,40.905727 26.275511,40.905727 
	C26.387819,43.301891 26.467836,45.009064 26.542616,46.604496 
	C36.530144,46.604496 45.928768,46.604496 55.290874,46.604496 
	C55.290874,44.551117 55.290874,42.848343 55.290874,40.905727 
	C52.384716,40.905727 49.898483,40.905727 46.435890,40.905727 
M31.724030,56.007915 
	C39.605412,56.007915 47.486794,56.007915 55.309639,56.007915 
	C55.309639,53.617714 55.309639,51.909195 55.309639,50.192848 
	C45.548416,50.192848 36.177853,50.192848 26.606876,50.192848 
	C26.606876,52.179680 26.606876,53.883930 26.606876,55.799770 
	C28.191923,55.878700 29.488295,55.943256 31.724030,56.007915 
M43.480621,58.992065 
	C37.880981,58.992065 32.281345,58.992065 26.689096,58.992065 
	C26.689096,61.334538 26.689096,63.043427 26.689096,64.692429 
	C36.493164,64.692429 45.904278,64.692429 55.305767,64.692429 
	C55.305767,62.661438 55.305767,60.952366 55.305767,58.992065 
	C51.433205,58.992065 47.950623,58.992065 43.480621,58.992065 
z"/>
<path fill="#FDFDFF" opacity="1.000000" stroke="none" 
	d="
M16.999655,58.705494 
	C16.999710,49.423862 17.100500,40.606949 16.956455,31.794037 
	C16.886858,27.535980 18.492716,24.783522 22.676657,23.675236 
	C22.993740,23.591244 23.277967,23.390591 23.588182,23.272255 
	C41.962334,16.263227 41.940311,16.316282 60.081764,23.923361 
	C63.452850,25.336929 65.045120,27.462378 65.020164,31.093958 
	C64.952736,40.906712 65.115494,50.723190 64.870522,60.530285 
	C64.833595,62.008545 63.101418,63.444454 62.153416,64.899956 
	C61.338593,63.476280 59.883484,62.080368 59.820328,60.624096 
	C59.553921,54.481468 59.474453,48.309753 59.773090,42.170395 
	C60.002472,37.454700 58.037037,36.091480 53.591587,36.224983 
	C45.282795,36.474514 36.953625,36.508938 28.647804,36.214039 
	C23.941099,36.046925 21.927277,37.482277 22.222601,42.428776 
	C22.559027,48.063725 22.525637,53.748501 22.171741,59.381382 
	C22.053169,61.268665 20.456354,63.063076 19.535233,64.899940 
	C18.690058,62.990582 17.844881,61.081219 16.999655,58.705494 
z"/>
<path fill="#F5F8FE" opacity="1.000000" stroke="none" 
	d="
M46.924072,40.905727 
	C49.898483,40.905727 52.384716,40.905727 55.290874,40.905727 
	C55.290874,42.848343 55.290874,44.551117 55.290874,46.604496 
	C45.928768,46.604496 36.530144,46.604496 26.542616,46.604496 
	C26.467836,45.009064 26.387819,43.301891 26.275511,40.905727 
	C33.253120,40.905727 39.844505,40.905727 46.924072,40.905727 
z"/>
<path fill="#FAFBFF" opacity="1.000000" stroke="none" 
	d="
M31.254347,56.007862 
	C29.488295,55.943256 28.191923,55.878700 26.606876,55.799770 
	C26.606876,53.883930 26.606876,52.179680 26.606876,50.192848 
	C36.177853,50.192848 45.548416,50.192848 55.309639,50.192848 
	C55.309639,51.909195 55.309639,53.617714 55.309639,56.007915 
	C47.486794,56.007915 39.605412,56.007915 31.254347,56.007862 
z"/>
<path fill="#FAFBFF" opacity="1.000000" stroke="none" 
	d="
M43.974331,58.992065 
	C47.950623,58.992065 51.433205,58.992065 55.305767,58.992065 
	C55.305767,60.952366 55.305767,62.661438 55.305767,64.692429 
	C45.904278,64.692429 36.493164,64.692429 26.689096,64.692429 
	C26.689096,63.043427 26.689096,61.334538 26.689096,58.992065 
	C32.281345,58.992065 37.880981,58.992065 43.974331,58.992065 
z"/>
</svg>